<svg xmlns="http://www.w3.org/2000/svg" viewBox="0 0 16 16"><linearGradient id="a" gradientUnits="userSpaceOnUse" x1="12.8394" y1="-.0828135" x2="3.2318" y2="16.1476"><stop offset="0" stop-color="#8245ff"/><stop offset="1" stop-color="#0ff"/></linearGradient><path d="M14.9 1.7L12.4.2c-.2-.1-.5-.1-.8 0L9.1 1.7c-.3.1-.4.4-.4.7v2.1c-.3 2-3.4 4.4-4.7 3.7l-.8-.5c-.1-.1-.3-.1-.4 0L.9 8.8c-.1.1-.2.2-.2.4v2.2c0 .1.1.3.2.4l1.9 1.1c.1.1.3.1.4 0l1.3-.7c1-.6 2.8.9 2.8 1.8v.8c0 .1.1.3.2.4l1.3.8c.1.1.3.1.4 0l1.3-.8c.1-.1.2-.2.2-.4v-1.5c0-.1-.1-.3-.2-.4L9.2 12h-.4l-.8.4c-1 .6-2.6-.7-2.7-1.8v-.7c.4-2 3.9-3.8 5.4-3l.9.5c.2.1.5.1.8 0L14.9 6c.2-.1.4-.4.4-.7V2.4c0-.3-.1-.6-.4-.7z" fill="url(#a)"/></svg>