<?xml version="1.0" standalone="no"?>
<!DOCTYPE svg PUBLIC "-//W3C//DTD SVG 20010904//EN"
 "http://www.w3.org/TR/2001/REC-SVG-20010904/DTD/svg10.dtd">
<svg version="1.0" xmlns="http://www.w3.org/2000/svg"
 width="700.000000pt" height="700.000000pt" viewBox="0 0 700.000000 700.000000"
 preserveAspectRatio="xMidYMid meet">
<metadata>
Created by potrace 1.11, written by Peter Selinger 2001-2013
</metadata>
<g transform="translate(0.000000,700.000000) scale(0.100000,-0.100000)"
fill="#000000" stroke="none">
<path d="M5249 6946 c-2 -2 -26 -6 -54 -9 -27 -3 -67 -11 -88 -17 -21 -6 -292
-164 -602 -350 -311 -186 -573 -341 -582 -345 -27 -8 -79 -83 -98 -140 -15
-44 -17 -110 -19 -575 l-3 -525 -26 -86 c-50 -166 -117 -303 -226 -469 -200
-301 -535 -626 -831 -805 -36 -22 -67 -42 -70 -45 -11 -12 -189 -100 -265
-130 -151 -61 -240 -82 -370 -86 -162 -5 -208 12 -430 151 -94 59 -182 116
-196 126 -29 20 -81 27 -118 14 -14 -4 -48 -23 -77 -41 -29 -19 -55 -34 -57
-34 -3 0 -34 -17 -68 -38 -135 -82 -451 -262 -460 -262 -5 0 -9 -4 -9 -10 0
-5 -4 -10 -9 -10 -12 0 -189 -105 -213 -127 -11 -10 -32 -38 -46 -62 l-26 -44
0 -521 c0 -485 2 -524 19 -561 44 -96 49 -100 533 -376 71 -41 290 -168 351
-204 74 -43 133 -50 179 -19 32 22 24 18 232 128 91 49 179 96 195 106 101 59
208 110 259 125 127 37 316 5 491 -83 232 -116 471 -343 571 -542 50 -100 56
-140 58 -370 2 -213 2 -215 29 -271 16 -31 40 -67 55 -81 15 -13 150 -100 300
-191 l272 -167 88 0 87 0 165 101 c91 56 217 133 280 172 63 38 130 86 148
106 63 68 63 70 63 456 0 193 -3 363 -6 379 -7 37 -47 105 -78 134 -13 12
-147 108 -298 212 l-273 190 -88 0 -87 0 -223 -110 c-123 -60 -236 -113 -253
-117 -16 -4 -79 -7 -140 -6 -93 0 -122 5 -190 28 -44 15 -101 38 -128 51 -48
25 -158 92 -167 103 -3 3 -21 18 -40 33 -186 142 -342 376 -381 572 -11 55
-14 340 -4 391 27 134 112 304 230 460 61 81 228 255 300 312 22 17 55 44 74
60 207 173 589 373 871 457 77 23 113 32 205 51 137 29 321 37 435 21 131 -20
194 -47 462 -197 208 -118 217 -121 314 -125 111 -4 195 20 324 93 58 33 112
63 120 66 8 4 33 18 55 32 22 14 47 28 55 32 8 4 65 34 125 69 61 34 133 74
160 89 28 16 122 69 210 118 88 49 180 101 205 115 118 64 179 136 210 247 11
40 14 175 13 715 0 366 -3 685 -6 710 -14 110 -66 189 -151 230 -22 11 -50 26
-62 33 -17 10 -745 448 -794 478 -235 141 -286 169 -328 174 -26 4 -59 9 -73
11 -14 2 -28 2 -30 0z"/>
</g>
</svg>
