<?xml version="1.0" encoding="utf-8"?>
<!-- Generator: Adobe Illustrator 22.1.0, SVG Export Plug-In . SVG Version: 6.00 Build 0)  -->
<svg version="1.1" id="Слой_1" xmlns="http://www.w3.org/2000/svg" xmlns:xlink="http://www.w3.org/1999/xlink" x="0px" y="0px"
	 viewBox="0 0 800 339" style="enable-background:new 0 0 800 339;" xml:space="preserve">
<style type="text/css">
	.st0{fill:url(#SVGID_1_);}
	.st1{fill:#FFFFFF;}
</style>
<linearGradient id="SVGID_1_" gradientUnits="userSpaceOnUse" x1="278.5359" y1="0.5413" x2="78.4572" y2="338.5381">
	<stop  offset="0" style="stop-color:#8245FF"/>
	<stop  offset="1" style="stop-color:#00FFFF"/>
</linearGradient>
<path class="st0" d="M322.2,37.6L269.1,7c-4.9-2.8-10.9-2.8-15.8,0l-53.1,30.6c-4.9,2.8-7.9,8-7.9,13.7v44.2
	c-6.6,42.6-70.5,93-98.2,76.7l-16-9.2c-2.6-1.5-5.8-1.5-8.5,0l-40,23.1c-2.6,1.5-4.2,4.3-4.2,7.3v46.2c0,3,1.6,5.8,4.2,7.3l40,23.1
	c2.6,1.5,5.8,1.5,8.5,0l26.4-15.3c21.4-12.4,58.7,19.2,58.3,37.7v16c0,3,1.6,5.8,4.2,7.3l27.7,16c2.6,1.5,5.8,1.5,8.5,0l27.7-16
	c2.6-1.5,4.2-4.3,4.2-7.3v-32c0-3-1.6-5.8-4.2-7.3l-27.7-16c-2.6-1.5-5.8-1.5-8.5,0l-15.9,9.2l0,0c-20.2,11.9-54.2-14.3-56.4-38.5
	c0.1-0.5,0.1-1.3-0.1-2.4v0v-13.1c7.3-41.8,81.1-80.1,112.8-61.9v0l18.1,10.4c4.9,2.8,10.9,2.8,15.8,0l53.1-30.6
	c4.9-2.8,7.9-8,7.9-13.7V51.3C330,45.6,327,40.4,322.2,37.6z"/>
<g>
	<path class="st1" d="M300.1,263.2v-75.9h16.8v75.9H300.1z"/>
	<path class="st1" d="M398,263.2h-13.9l-34.5-43.9v43.9h-16.8v-75.9h14l34.5,45.3v-45.3H398V263.2z"/>
	<path class="st1" d="M448.9,203.6v59.6h-16.7v-59.6h-22.1v-16.3H471v16.3H448.9z"/>
	<path class="st1" d="M536.3,263.2h-53.2v-75.9H536v16.1h-36.1v14.3H533v15.2h-33.1v14.3h36.4V263.2z"/>
	<path class="st1" d="M601.3,263.2h-50.4v-75.9h16.8v59.6h33.6V263.2z"/>
	<path class="st1" d="M659.5,224.5c6.3,0.6,13.1,6,13.1,17.4c0,12.6-7.6,21.3-22.5,21.3h-35.5v-75.9h35.4c12.5,0,20.7,8.3,20.7,20.7
		c0,10.4-6.6,15.4-11.2,16V224.5z M631.5,218.7h14.7c5,0,8.3-3.4,8.3-8.5c0-4.8-3.4-7.8-7.6-7.8h-15.3V218.7z M647.2,248.1
		c5.4,0,8.4-3.3,8.4-8.5c0-5-3.3-8.2-8-8.2h-16v16.6H647.2z"/>
	<path class="st1" d="M686.2,263.2v-75.9H703v75.9H686.2z"/>
	<path class="st1" d="M753.9,203.6v59.6h-16.7v-59.6h-22.1v-16.3H776v16.3H753.9z"/>
</g>
</svg>
